# AST/ASF file generated using VICON BodyLanguage
# -----------------------------------------------
:version 1.10
:name VICON
:units
  mass 1.0
  length 0.45
  angle deg
:documentation
   .ast/.asf automatically generated from VICON data using
   VICON BodyBuilder and BodyLanguage model FoxedUp or BRILLIANT.MOD
:root
   order TX TY TZ RX RY RZ
   axis XYZ
   position 0 0 0  
   orientation 0 0 0 
:bonedata
  begin
     id 1 
     name lhipjoint
     direction 0.558404 -0.748506 0.357664 
     length 2.4234 
     axis 0 0 0  XYZ
  end
  begin
     id 2 
     name lfemur
     direction 0.34202 -0.939693 0  
     length 7.14567  
     axis 0 0 20  XYZ
    dof rx ry rz
    limits (-160.0 20.0)
           (-70.0 70.0)
           (-60.0 70.0)
  end
  begin
     id 3 
     name ltibia
     direction 0.34202 -0.939693 0   
     length 8.13956   
     axis 0 0 20   XYZ
    dof rx
    limits (-10.0 170.0)
  end
  begin
     id 4 
     name lfoot
     direction 0.0791314 -0.217412 0.972867   
     length 2.00134   
     axis -90 7.62852e-016 20   XYZ
    dof rx rz
    limits (-45.0 90.0)
           (-70.0 20.0)
  end
  begin
     id 5 
     name ltoes
     direction 1.53547e-011 -4.21922e-011 1   
     length 1.00735   
     axis -90 7.62852e-016 20   XYZ
    dof rx
    limits (-90.0 20.0)
  end
  begin
     id 6 
     name rhipjoint
     direction -0.496392 -0.78327 0.374276   
     length 2.31584  
     axis 0 0 0  XYZ 
  end
  begin
     id 7 
     name rfemur
     direction -0.34202 -0.939693 0   
     length 7.47417   
     axis 0 0 -20   XYZ
    dof rx ry rz
    limits (-160.0 20.0)
           (-70.0 70.0)
           (-70.0 60.0)
  end
  begin
     id 8 
     name rtibia
     direction -0.34202 -0.939693 0   
     length 7.69071   
     axis 0 0 -20   XYZ
    dof rx
    limits (-10.0 170.0)
 end
 begin
     id 9 
     name rfoot
     direction -0.103069 -0.28318 0.953512   
     length 2.16135  
     axis -90 -7.62852e-016 -20   XYZ
    dof rx rz
    limits (-45.0 90.0)
           (-20.0 70.0)
  end
  begin
     id 10 
     name rtoes
     direction -1.53581e-011 -4.21904e-011 1   
     length 1.07867   
     axis -90 -7.62852e-016 -20   XYZ
    dof rx
    limits (-90.0 20.0)
  end
  begin
     id 11 
     name lowerback
     direction -0.0258961 0.994776 -0.0987407   
     length 2.19412   
     axis 0 0 0   XYZ
    dof rx ry rz
    limits (-20.0 45.0)
           (-30.0 30.0)
           (-30.0 30.0)
  end
  begin
     id 12 
     name upperback
     direction 0.0402454 0.999185 0.00320666   
     length 2.18445   
     axis 0 0 0   XYZ
    dof rx ry rz
    limits (-20.0 45.0)
           (-30.0 30.0)
           (-30.0 30.0)
  end
  begin
     id 13 
     name thorax
     direction 0.0519376 0.997415 0.0496558   
     length 2.21487   
     axis 0 0 0   XYZ
    dof rx ry rz
    limits (-20.0 45.0)
           (-30.0 30.0)
           (-30.0 30.0)
  end
  begin
     id 14 
     name lowerneck
     direction -0.0921276 0.983211 0.157506   
     length 1.61201   
     axis 0 0 0   XYZ
    dof rx ry rz
    limits (-20.0 45.0)
           (-30.0 30.0)
           (-30.0 30.0)
  end
  begin
     id 15 
     name upperneck
     direction 0.0820814 0.98162 -0.172292   
     length 1.65275   
     axis 0 0 0   XYZ
    dof rx ry rz
    limits (-20.0 45.0)
           (-30.0 30.0)
           (-30.0 30.0)
  end
  begin
     id 16
     name head
     direction 0.0336554 0.996413 -0.0776455  
     length 1.66415  
     axis 0 0 0   XYZ
    dof rx ry rz
    limits (-20.0 45.0)
           (-30.0 30.0)
           (-30.0 30.0)
  end
  begin
     id 17 
     name lclavicle
     direction 0.94696 0.284418 -0.149576  
     length 3.41447  
     axis 0 0 0   XYZ
    dof ry rz
    limits (-20.0 10.0)
           (0.0 20.0)
  end
  begin
     id 18 
     name lhumerus
     direction 1 -0.000130264 -9.81312e-005   
     length 5.19964   
     axis 180 -30 -90   XYZ
    dof rx ry rz
    limits (-60.0 90.0)
           (-90.0 90.0)
           (-90.0 90.0)
  end
  begin
     id 19
     name lradius
     direction 1 -4.48961e-011 1.43854e-026   
     length 3.32189   
     axis 180 -30 -90   XYZ
    dof rx
    limits (-10.0 170.0)
  end
  begin
     id 20
     name lwrist
     direction 1 -4.48958e-011 3.1502e-026   
     length 1.66095   
     axis -1.97692e-014 90 90   XYZ
    dof ry
    limits (-180.0 0.0)
 end
  begin
     id 21 
     name lhand
     direction 1 -4.48927e-011 6.3004e-026   
     length 0.645616   
     axis -4.02019e-014 90 90   XYZ
    dof rx rz
    limits (-90.0 90.0)
           (-45.0 45.0)
  end
  begin
     id 22 
     name lfingers
     direction 1 -4.4904e-011 1.26008e-025   
     length 0.520512   
     axis -8.04039e-014 90 90   XYZ
    dof rx
    limits (0.0 90.0)
  end
  begin
     id 23
     name lthumb
     direction 0.707107 -6.34947e-011 0.707107   
     length 0.747354   
     axis -90 45 2.85299e-015   XYZ
    dof rx rz
    limits (-45.0 45.0)
           (-45.0 45.0)
  end
  begin
     id 24 
     name rclavicle
     direction -0.909391 0.383475 -0.161107   
     length 3.25176  
     axis 0 0 0   XYZ 
    dof ry rz
    limits (-10.0 20.0)
           (-20.0 0.0)
  end
  begin
     id 25 
     name rhumerus
     direction -1 -4.48965e-011 -1.81384e-027  
     length 5.6595   
     axis 180 30 90   XYZ
    dof rx ry rz
    limits (-90.0 60.0)
           (-90.0 90.0)
           (-90.0 90.0)
  end
  begin
     id 26 
     name rradius
     direction -1 -4.48996e-011 -8.09397e-027   
     length 3.37604   
     axis 180 30 90   XYZ
    dof rx
    limits (-10.0 170.0)
  end
  begin
     id 27 
     name rwrist
     direction -1 -4.48927e-011 -1.56669e-026   
     length 1.68802   
     axis 1.21142e-014 -90 -90   XYZ
    dof ry
    limits (-180.0 0.0)
  end
  begin
     id 28
     name rhand
     direction -1 -4.48912e-011 -3.13339e-026   
     length 0.824702   
     axis 1.99937e-014 -90 -90   XYZ
    dof rx rz
    limits (-90.0 90.0)
           (-45.0 45.0)
  end
  begin
     id 29
     name rfingers
     direction -1 -4.49011e-011 -6.26677e-026   
     length 0.664896   
     axis 3.99874e-014 -90 -90   XYZ
    dof rx
    limits (0.0 90.0)
  end
  begin
     id 30
     name rthumb
     direction -0.707107 -6.34931e-011 0.707107   
     length 0.954662   
     axis -90 -45 -2.85299e-015   XYZ
    dof rx rz
    limits (-45.0 45.0)
           (-45.0 45.0)
  end
:hierarchy
  begin
    root lhipjoint rhipjoint lowerback
    lhipjoint lfemur
    lfemur ltibia
    ltibia lfoot
    lfoot ltoes
    rhipjoint rfemur
    rfemur rtibia
    rtibia rfoot
    rfoot rtoes
    lowerback upperback
    upperback thorax
    thorax lowerneck lclavicle rclavicle
    lowerneck upperneck
    upperneck head
    lclavicle lhumerus
    lhumerus lradius
    lradius lwrist
    lwrist lhand lthumb
    lhand lfingers
    rclavicle rhumerus
    rhumerus rradius
    rradius rwrist
    rwrist rhand rthumb
    rhand rfingers
  end

#!OML:ASF F:\VICON\USERDATA\INSTALL\rory3\rory3.ASF
:FULLY-SPECIFIED
:DEGREES
340
root 6.07881 16.3814 -22.9738 25.8132 -36.8432 -7.18841
lowerback 13.749 -5.62333 -4.76618
upperback 1.76616 -7.865 6.38949
thorax -4.20584 -3.85238 10.8567
lowerneck -15.0545 3.72474 -8.24258
upperneck 17.173 5.42782 7.8467
head 7.27409 2.78566 4.49472
rclavicle 5.40694e-014 4.92986e-014
rhumerus -35.884 -4.41556 -69.7379
rradius 59.0165
rwrist -17.5426
rhand -15.9848 20.9304
rfingers 7.12502
rthumb 10.2148 -8.80156
lclavicle 5.40694e-014 4.92986e-014
lhumerus -7.87482 23.8858 61.9086
lradius 29.3651
lwrist -10.3176
lhand -10.1584 30.4467
lfingers 7.12502
lthumb 15.8311 59.8194
rfemur -58.4291 -2.69905 27.2864
rtibia 71.5944
rfoot -21.8483 -4.44493
rtoes 4.75366
lfemur -12.7559 -2.64591 -31.0178
ltibia 48.8628
lfoot 14.4018 -12.6608
ltoes 16.5525
341
root 6.00456 16.3315 -22.7199 25.8976 -36.4143 -7.63957
lowerback 13.8662 -5.36597 -4.325
upperback 1.79659 -7.45091 6.63573
thorax -4.34901 -3.6469 10.8415
lowerneck -15.5957 3.39411 -8.15958
upperneck 17.4936 5.02221 7.68679
head 7.51857 2.5833 4.42353
rclavicle 2.70347e-014 -4.73108e-014
rhumerus -35.4302 -4.43627 -69.1686
rradius 59.5324
rwrist -17.7189
rhand -16.2284 20.8729
rfingers 7.12502
rthumb 9.97984 -8.87051
lclavicle 2.70347e-014 -4.73108e-014
lhumerus -7.41831 23.2733 60.9007
lradius 28.4175
lwrist -10.0139
lhand -10.2804 30.1715
lfingers 7.12502
lthumb 15.7136 59.5535
rfemur -57.2206 -2.30858 27.1835
rtibia 71.9059
rfoot -23.1677 -5.7849
rtoes 3.4101
lfemur -14.0643 -1.91124 -30.2778
ltibia 51.6242
lfoot 17.8475 -14.2729
ltoes 19.9349
342
root 5.93065 16.298 -22.4634 25.9966 -35.9892 -8.01367
lowerback 14.0619 -5.23448 -4.111
upperback 1.71394 -7.23133 6.99325
thorax -4.56899 -3.5289 11.1272
lowerneck -16.3756 3.18069 -8.14691
upperneck 18.1688 4.8249 7.41603
head 7.90639 2.45909 4.36409
rclavicle -2.44505e-014 4.92986e-014
rhumerus -34.7154 -4.21228 -68.5321
rradius 59.8616
rwrist -17.4663
rhand -16.3352 21.04
rfingers 7.12502
rthumb 9.87673 -8.7083
lclavicle -2.44505e-014 4.92986e-014
lhumerus -7.9599 24.5822 59.9907
lradius 28.1716
lwrist -11.1933
lhand -9.25468 30.7036
lfingers 7.12502
lthumb 16.7013 60.0051
rfemur -55.9821 -2.13585 27.1759
rtibia 72.0364
rfoot -24.5301 -6.821
rtoes 3.81777
lfemur -15.6887 -1.34241 -29.551
ltibia 54.7047
lfoot 19.2293 -14.6897
ltoes 20.0894
343
root 5.86104 16.2651 -22.2009 26.0206 -35.7572 -8.46554
lowerback 14.3372 -5.11175 -3.83444
upperback 1.68258 -7.01881 7.18192
thorax -4.8079 -3.41423 11.1933
lowerneck -16.2064 3.07142 -8.34444
upperneck 17.845 4.70287 7.51478
head 7.77194 2.40357 4.40028
rclavicle 1.10723e-013 -8.98507e-014
rhumerus -33.9627 -3.80768 -68.1416
rradius 60.1631
rwrist -16.8574
rhand -16.3976 21.358
rfingers 7.12502
rthumb 9.81659 -8.39317
lclavicle 1.10723e-013 -8.98507e-014
lhumerus -8.80458 25.8915 58.5629
lradius 28.224
lwrist -12.3496
lhand -7.97376 30.5696
lfingers 7.12502
lthumb 17.9341 59.7627
rfemur -54.5468 -2.09041 27.2305
rtibia 72.0197
rfoot -25.6894 -7.51542
rtoes 4.12273
lfemur -17.2505 -0.611642 -28.9103
ltibia 58.0453
lfoot 18.8031 -14.032
ltoes 21.1181
344
root 5.79034 16.2401 -21.9309 25.9785 -35.6621 -9.14752
lowerback 14.6909 -4.84423 -3.3353
upperback 1.77099 -6.58553 7.19988
thorax -5.0548 -3.19568 10.9016
lowerneck -15.8284 2.83654 -8.46962
upperneck 17.2694 4.33914 7.82555
head 7.53605 2.2608 4.45766
rclavicle 1.3577e-013 -8.15017e-014
rhumerus -33.3641 -3.2892 -68.1485
rradius 60.9886
rwrist -17.2851
rhand -17.1566 20.8542
rfingers 7.12502
rthumb 9.08425 -8.93016
lclavicle 1.3577e-013 -8.15017e-014
lhumerus -9.37412 26.0905 56.861
lradius 28.137
lwrist -12.7905
lhand -7.96615 29.8709
lfingers 7.12502
lthumb 17.9414 59.0634
rfemur -52.7644 -2.01217 27.4331
rtibia 71.7794
rfoot -26.5769 -8.57206
rtoes 1.6305
lfemur -18.6753 0.440518 -28.1012
ltibia 61.5511
lfoot 16.3246 -12.1964
ltoes 15.9801
345
root 5.71926 16.2355 -21.6631 26.0654 -35.6095 -9.86127
lowerback 14.9351 -4.45965 -2.90008
upperback 1.89776 -6.00613 7.23712
thorax -5.21284 -2.91092 10.6215
lowerneck -16.0593 2.46223 -8.55485
upperneck 17.2153 3.8099 8.13293
head 7.59767 2.03833 4.53028
rclavicle 1.15494e-013 -3.97569e-016
rhumerus -32.566 -3.14997 -68.0791
rradius 61.6787
rwrist -17.4791
rhand -18.1105 20.7588
rfingers 7.12502
rthumb 8.16367 -9.06353
lclavicle 1.15494e-013 -3.97569e-016
lhumerus -9.62652 26.377 55.3856
lradius 27.8372
lwrist -13.0634
lhand -9.55347 28.8205
lfingers 7.12502
lthumb 16.4136 58.1461
rfemur -51.0904 -1.98746 27.7709
rtibia 71.3284
rfoot -26.9201 -10.3969
rtoes -4.72046
lfemur -20.4547 1.56777 -27.1556
ltibia 65.2149
lfoot 14.0983 -9.96998
ltoes 12.1688
346
root 5.64851 16.2607 -21.3857 26.2891 -35.6929 -10.6555
lowerback 14.8853 -3.9999 -2.34882
upperback 2.18834 -5.3234 7.18091
thorax -5.06591 -2.59726 10.0954
lowerneck -16.7168 2.09694 -8.44235
upperneck 17.3225 3.28176 8.38824
head 7.79524 1.82895 4.56935
rclavicle 7.17613e-014 -4.96962e-014
rhumerus -31.4133 -3.60268 -68.0123
rradius 62.1769
rwrist -17.1792
rhand -18.633 20.9338
rfingers 7.12502
rthumb 7.65942 -8.90745
lclavicle 7.17613e-014 -4.96962e-014
lhumerus -9.23329 26.7355 53.9271
lradius 27.2206
lwrist -13.0936
lhand -10.6168 28.0298
lfingers 7.12502
lthumb 15.3896 57.437
rfemur -49.3118 -1.91103 28.0733
rtibia 70.6142
rfoot -27.1233 -11.6455
rtoes -8.7475
lfemur -22.5063 2.94094 -26.1252
ltibia 68.8523
lfoot 11.7475 -7.60538
ltoes 13.4243
347
root 5.58327 16.2636 -21.1155 26.4724 -35.7457 -11.5643
lowerback 15.4556 -3.62146 -1.96371
upperback 2.11654 -4.7384 7.3419
thorax -5.58168 -2.28901 10.0226
lowerneck -16.9783 1.91725 -8.36438
upperneck 17.6256 3.02437 8.38409
head 7.96787 1.71099 4.54705
rclavicle 2.56432e-014 1.23246e-014
rhumerus -30.5998 -3.19038 -67.7206
rradius 62.9767
rwrist -17.087
rhand -18.679 20.9664
rfingers 7.12502
rthumb 7.61502 -8.87652
lclavicle 2.56432e-014 1.23246e-014
lhumerus -9.96251 27.082 52.0785
lradius 26.8764
lwrist -13.149
lhand -10.5096 28.0718
lfingers 7.12502
lthumb 15.4929 57.471
rfemur -47.3686 -1.65407 28.2648
rtibia 69.8971
rfoot -27.8803 -11.4646
rtoes -6.18458
lfemur -24.7289 4.57278 -24.9702
ltibia 72.5781
lfoot 9.30191 -5.71793
ltoes 14.0804
348
root 5.5224 16.2687 -20.8399 26.4589 -35.5421 -12.1409
lowerback 15.4419 -3.20369 -1.15747
upperback 2.3935 -4.07085 7.22639
thorax -5.46467 -1.98586 9.27703
lowerneck -17.2233 1.32667 -8.66053
upperneck 17.24 2.22832 8.88827
head 7.94736 1.37562 4.67902
rclavicle -3.32964e-014 3.97569e-015
rhumerus -29.515 -3.84347 -67.5621
rradius 64.008
rwrist -16.8909
rhand -18.6184 20.8417
rfingers 7.12502
rthumb 7.67347 -8.99906
lclavicle -3.32964e-014 3.97569e-015
lhumerus -9.67037 27.6562 50.6871
lradius 26.5266
lwrist -13.7279
lhand -10.2078 28.3261
lfingers 7.12502
lthumb 15.7835 57.7026
rfemur -45.3316 -1.68921 28.1834
rtibia 69.0933
rfoot -28.8417 -10.7904
rtoes -1.64275
lfemur -27.018 5.91349 -23.9672
ltibia 76.1077
lfoot 7.484 -4.56695
ltoes 10.5625
349
root 5.4549 16.2788 -20.5891 26.8546 -35.4912 -12.4516
lowerback 15.6497 -2.93038 -1.35768
upperback 2.01801 -3.70443 7.39814
thorax -6.01794 -1.76781 9.56778
lowerneck -16.7745 1.06175 -9.29408
upperneck 16.9299 1.92545 9.29609
head 7.78224 1.22723 4.87168
rclavicle 6.27166e-014 -9.95911e-014
rhumerus -28.7885 -3.17914 -67.287
rradius 65.2538
rwrist -16.5022
rhand -18.3499 20.9092
rfingers 7.12502
rthumb 7.93268 -8.92198
lclavicle 6.27166e-014 -9.95911e-014
lhumerus -11.1166 28.4996 48.4488
lradius 26.4566
lwrist -13.8766
lhand -9.52341 28.9135
lfingers 7.12502
lthumb 16.4426 58.2367
rfemur -44.0758 -1.74258 28.0578
rtibia 68.2199
rfoot -29.1976 -11.017
rtoes -2.97117
lfemur -30.1319 7.23113 -23.1749
ltibia 79.469
lfoot 6.12618 -3.76694
ltoes 6.85952
350
root 5.38838 16.298 -20.3302 27.1729 -35.3814 -12.7262
lowerback 15.5811 -2.61702 -1.25066
upperback 1.86337 -3.26485 7.31503
thorax -6.23345 -1.53954 9.33103
lowerneck -16.6635 0.777925 -9.4252
upperneck 16.7692 1.50339 9.62131
head 7.74876 1.04996 4.95381
rclavicle 2.3556e-014 3.63776e-014
rhumerus -28.0999 -3.14481 -67.233
rradius 66.8755
rwrist -16.1184
rhand -17.9463 21.0184
rfingers 7.12502
rthumb 8.32221 -8.79768
lclavicle 2.3556e-014 3.63776e-014
lhumerus -11.54 29.0758 46.2766
lradius 26.1132
lwrist -13.6266
lhand -8.68809 29.7952
lfingers 7.12502
lthumb 17.2467 59.0499
rfemur -42.7235 -1.97134 27.945
rtibia 67.2024
rfoot -29.4636 -11.2166
rtoes -5.67691
lfemur -33.2432 8.30419 -22.3917
ltibia 82.5211
lfoot 4.77797 -3.08067
ltoes 5.47219
351
root 5.31953 16.3293 -20.0303 27.2665 -35.7843 -13.5324
lowerback 15.7086 -2.00296 -0.845101
upperback 1.93657 -2.38686 7.22356
thorax -6.39143 -1.11378 8.82139
lowerneck -16.9822 0.391674 -9.49091
upperneck 17.1849 0.950027 9.8419
head 7.9997 0.806482 5.00406
rclavicle 7.05686e-015 -1.74931e-014
rhumerus -27.6682 -3.38987 -66.9182
rradius 68.7814
rwrist -15.8062
rhand -17.506 21.1081
rfingers 7.12502
rthumb 8.74704 -8.69064
lclavicle 7.05686e-015 -1.74931e-014
lhumerus -11.6103 30.0615 44.5252
lradius 25.5659
lwrist -14.0194
lhand -7.82678 30.5773
lfingers 7.12502
lthumb 18.0755 59.7573
rfemur -40.4007 -1.61717 27.7418
rtibia 65.9521
rfoot -30.0147 -10.3569
rtoes -3.41148
lfemur -35.4715 9.84536 -21.425
ltibia 85.0792
lfoot 3.42121 -2.859
ltoes 5.99221
352
root 5.25568 16.362 -19.7778 27.8987 -35.4852 -14.0673
lowerback 15.6991 -1.59195 -0.73674
upperback 1.53785 -1.78332 7.4346
thorax -6.90844 -0.790066 8.8969
lowerneck -17.294 -0.0244125 -9.70932
upperneck 17.8353 0.408917 9.91915
head 8.33028 0.543076 5.03753
rclavicle -8.97016e-014 2.18663e-015
rhumerus -27.4368 -3.2621 -66.4063
rradius 70.7972
rwrist -15.3244
rhand -17.178 21.3563
rfingers 7.12502
rthumb 9.06363 -8.42899
lclavicle -8.97016e-014 2.18663e-015
lhumerus -12.381 31.2742 42.705
lradius 25.2078
lwrist -15.0875
lhand -7.00125 30.8315
lfingers 7.12502
lthumb 18.8696 59.9363
rfemur -39.0322 -1.56044 27.7921
rtibia 64.6109
rfoot -30.1292 -9.78423
rtoes -1.39714
lfemur -39.0234 10.7921 -20.2975
ltibia 87.5598
lfoot 2.48106 -3.23666
ltoes 6.70224
353
root 5.1914 16.4062 -19.515 28.2227 -35.1911 -14.4599
lowerback 15.8529 -1.18578 -0.813052
upperback 1.29277 -1.2233 7.59679
thorax -7.34331 -0.489467 9.03339
lowerneck -17.4771 -0.505335 -9.74503
upperneck 17.9834 -0.24293 9.94785
head 8.48623 0.239008 4.98791
rclavicle -3.47625e-014 -6.16232e-014
rhumerus -27.0403 -3.13577 -66.0614
rradius 72.9471
rwrist -14.8946
rhand -17.0156 21.7055
rfingers 7.12502
rthumb 9.22034 -8.07296
lclavicle -3.47625e-014 -6.16232e-014
lhumerus -13.1822 32.1018 40.8088
lradius 25.0014
lwrist -15.6484
lhand -6.78411 30.807
lfingers 7.12502
lthumb 19.0784 59.8913
rfemur -37.3744 -1.69954 27.7855
rtibia 63.0285
rfoot -29.7377 -9.98069
rtoes -4.79607
lfemur -42.2502 11.5794 -19.3069
ltibia 89.5494
lfoot 1.61706 -3.74286
ltoes 5.25083
354
root 5.11922 16.4712 -19.214 28.677 -35.3185 -15.2308
lowerback 15.4075 -0.711137 -0.387597
upperback 1.43873 -0.555646 7.40351
thorax -7.04928 -0.191099 8.38596
lowerneck -17.5468 -0.967745 -9.61792
upperneck 17.6585 -0.991884 10.4241
head 8.47508 -0.0522451 5.03624
rclavicle 2.55935e-014 -6.52014e-014
rhumerus -26.3973 -3.47198 -66.232
rradius 75.1954
rwrist -14.575
rhand -16.7773 22.0037
rfingers 7.12502
rthumb 9.45021 -7.76438
lclavicle 2.55935e-014 -6.52014e-014
lhumerus -13.3489 32.8202 38.7257
lradius 24.8858
lwrist -15.2514
lhand -6.82551 31.2568
lfingers 7.12502
lthumb 19.0386 60.345
rfemur -35.3763 -1.4829 27.8263
rtibia 61.1959
rfoot -29.027 -10.7835
rtoes -12.2767
lfemur -45.0458 12.7637 -18.2578
ltibia 90.9991
lfoot 0.605978 -4.26872
ltoes 2.28148
